<?xml version="1.0" encoding="UTF-8"?>
<svg id="Layer_1" data-name="Layer 1" xmlns="http://www.w3.org/2000/svg" viewBox="0 0 567.34 156.06">
  <defs>
    <style>
      .cls-1 {
        fill: #d71920;
        stroke-width: 0px;
      }
      .cls-2 {
        letter-spacing: .2em;
      }
      .cls-3 {
        letter-spacing: .17em;
      }
      .cls-4 {
        font-family: Lato-Black, Lato;
        font-size: 33.7px;
        font-weight: 800;
      }
    </style>
  </defs>
  <g id="Maraba_Mini" data-name="Maraba Mini">
    <text class="cls-4" transform="translate(183.5 144.52)"><tspan class="cls-2" x="0" y="0">AMERIC</tspan><tspan class="cls-3" x="170.79" y="0">A</tspan></text>
  </g>
  <g id="CCI-Main-Flat">
    <g>
      <path class="cls-1" d="m318.66,34.95c-40.89-39.64-63.97-11.77-90.48,22.92-11.54,15.11-27.94,27.04-38.96,25.17-43.04-4.76-16.09-87.65,35.02-27.55l10.77-13.32c-4.36-5.13-7.7-8.47-11.95-12.07-51.99-43.95-93.35,21.51-59.68,58.86,10.97,11.39,28.13,12.58,41.06,7.79,24.56-9.11,39.09-37.59,57.44-54.84,20.57-21.94,40.49-2.51,53.81,15.5l10.89-13.32c-1.8-2.2-4.18-5.51-7.92-9.14Z"/>
      <path class="cls-1" d="m415.79,53.67c-2.41-20.16-18.37-38.65-39.49-38.21-10.26.21-23.16,7.59-27.97,12.21-15.13,11.56-27.34,33.56-41.14,45.58-28.77,25.08-37.26,18.22-57.77-10.82l-11.28,13.24c20.81,30.75,47.96,39.14,76.24,14.65,18.09-14.03,39.92-57.16,61.76-57.17,20.18,0,30.93,26.8,20.2,40.99-17.5,19.54-39.85,3.39-53.27-10.72l-11.1,13.72c11.02,9.55,23.87,21.23,42.38,23.21,26.67,3.37,44.64-19.52,41.44-46.68Z"/>
    </g>
  </g>
</svg>
