<svg width="200" height="60" viewBox="0 0 200 60" fill="none" xmlns="http://www.w3.org/2000/svg">
  <!-- Church Logo Symbol -->
  <g transform="translate(10, 10)">
    <!-- Left Loop -->
    <path d="M 0 20 Q 0 0 20 0 Q 40 0 40 20 Q 40 40 20 40 Q 0 40 0 20 Z" 
          fill="none" 
          stroke="#1f2937" 
          stroke-width="4" 
          stroke-linecap="round" 
          stroke-linejoin="round"/>
    
    <!-- Center Loop -->
    <path d="M 20 20 Q 20 0 40 0 Q 60 0 60 20 Q 60 40 40 40 Q 20 40 20 20 Z" 
          fill="none" 
          stroke="#1f2937" 
          stroke-width="4" 
          stroke-linecap="round" 
          stroke-linejoin="round"/>
    
    <!-- Right Loop -->
    <path d="M 40 20 Q 40 0 60 0 Q 80 0 80 20 Q 80 40 60 40 Q 40 40 40 20 Z" 
          fill="none" 
          stroke="#1f2937" 
          stroke-width="4" 
          stroke-linecap="round" 
          stroke-linejoin="round"/>
  </g>
  
  <!-- Text -->
  <g transform="translate(100, 8)">
    <text x="0" y="12" font-family="Arial, sans-serif" font-size="12" font-weight="bold" fill="#1f2937" text-transform="uppercase">CELEBRATION</text>
    <text x="0" y="26" font-family="Arial, sans-serif" font-size="12" font-weight="bold" fill="#1f2937" text-transform="uppercase">CHURCH</text>
    <text x="0" y="40" font-family="Arial, sans-serif" font-size="12" font-weight="bold" fill="#1f2937" text-transform="uppercase">AMERICA</text>
  </g>
</svg>
